<svg width="746" height="746" version="1.1" xmlns="http://www.w3.org/2000/svg"><path fill="rgb(0,0,0)" stroke="rgb(0,0,0)" stroke-width="1" opacity="1" d="M 138.5 71 L 141.5 72 Q 154.4 71.6 159 79.5 L 304.5 265 L 733.5 265 L 734 266.5 L 735 271.5 L 734 272.5 L 733 305.5 L 732 306.5 L 729 333.5 L 727 339.5 L 727 348.5 L 720 375.5 L 706 413.5 L 691 444.5 L 674 472.5 L 664 485.5 L 663 489.5 Q 643.5 515 620.5 537 L 601 553 L 598.5 557 L 572.5 576 L 537.5 597 L 512.5 609 L 473.5 623 L 450.5 629 L 423.5 634 L 409.5 635 L 408.5 636 L 396.5 636 L 395.5 637 L 346.5 637 L 345.5 636 L 333.5 636 L 332.5 635 L 317.5 634 L 290.5 629 L 261.5 621 L 226.5 608 L 198.5 594 L 161.5 571 L 130.5 546 L 106 522.5 L 79 489.5 L 60 461.5 Q 44.6 436.9 33 408.5 L 33 404.5 L 25 384.5 L 19 364.5 L 12 333.5 L 9 306.5 L 8 305.5 L 7 269.5 L 6 268.5 L 7 265 L 218 264.5 L 108 125.5 L 103 117.5 L 101 108.5 Q 103.5 107 102 101.5 L 105 94.5 L 113.5 86 L 127.5 75 L 138.5 71 Z M 137 81 L 119 94 L 111 104 Q 110 113 113 117 L 221 253 L 230 265 L 292 265 L 226 182 L 220 172 L 161 99 L 154 88 Q 150 80 137 81 Z M 15 273 L 15 293 L 16 294 L 16 305 L 17 306 L 18 322 L 20 328 L 23 348 L 36 395 Q 48 427 65 455 Q 83 483 104 509 Q 131 538 163 562 Q 194 584 231 601 L 270 615 L 292 621 L 318 626 L 333 627 L 334 628 L 346 628 L 347 629 L 396 629 L 397 628 L 408 628 L 409 627 L 441 623 L 473 615 L 511 601 L 538 588 L 572 567 L 600 545 Q 602 546 601 544 L 608 538 Q 634 514 656 486 L 676 455 L 695 419 Q 707 393 715 364 L 723 328 L 725 307 L 726 306 L 726 294 L 727 293 L 727 274 L 727 273 L 400 273 Q 400 416 337 498 L 317 515 Q 306 522 292 525 L 273 525 L 262 522 Q 246 516 235 505 L 222 492 L 222 490 L 206 467 L 188 427 L 179 394 Q 176 393 177 396 L 161 411 Q 158 410 159 413 L 144 419 L 126 419 Q 112 416 104 408 Q 85 390 74 365 L 68 349 L 63 330 L 60 314 L 60 307 L 59 306 L 59 297 L 58 296 L 58 273 L 15 273 Z M 66 273 L 67 306 L 74 341 L 85 370 L 99 393 L 115 406 L 124 410 L 135 412 L 149 409 L 158 404 Q 167 397 173 387 L 183 377 L 184 377 L 184 385 L 189 404 L 200 436 Q 212 464 229 488 Q 240 501 255 510 L 269 516 L 281 517 L 282 518 L 299 515 L 319 504 Q 336 489 348 470 L 348 467 Q 361 447 369 423 L 379 390 L 379 386 L 384 367 L 387 344 L 388 343 L 388 336 L 389 335 L 390 317 L 391 316 L 391 302 L 392 301 L 392 274 L 392 273 L 66 273 Z "></path><path fill="rgb(0,0,0)" stroke="rgb(0,0,0)" stroke-width="1" opacity="0" d="M 0 0 L 746 0 L 746 746 L 0 746 L 0 0 Z M 140 70 L 128 74 L 108 90 L 102 99 L 100 110 L 104 122 L 217 264 L 217 265 L 7 265 L 6 269 L 7 270 L 8 306 L 9 307 L 12 334 L 19 365 L 25 385 L 33 405 L 33 409 Q 45 437 60 462 L 79 490 L 106 523 L 131 546 L 162 571 L 199 594 L 227 608 L 262 621 L 291 629 L 318 634 L 333 635 L 334 636 L 346 636 L 347 637 L 396 637 L 397 636 L 409 636 L 410 635 L 424 634 L 451 629 L 474 623 L 513 609 L 538 597 L 573 576 L 599 557 L 601 553 L 621 537 Q 644 515 663 490 L 664 486 L 674 473 L 691 445 L 706 414 L 720 376 L 727 349 L 727 340 L 729 334 L 732 307 L 733 306 L 734 273 L 735 272 L 734 267 L 734 265 L 304 265 L 285 241 L 282 235 L 223 162 L 220 156 L 159 79 L 151 72 L 140 70 Z "></path><path fill="rgb(182,121,88)" stroke="rgb(182,121,88)" stroke-width="1" opacity="1" d="M 141.5 71 L 146 71.5 L 141.5 72 L 141.5 71 Z "></path><path fill="rgb(182,121,88)" stroke="rgb(182,121,88)" stroke-width="1" opacity="1" d="M 125.5 76 L 124.5 78 L 125.5 76 Z "></path><path fill="rgb(182,121,88)" stroke="rgb(182,121,88)" stroke-width="1" opacity="1" d="M 157.5 77 L 158.5 79 L 157.5 77 Z "></path><path fill="rgb(182,121,88)" stroke="rgb(182,121,88)" stroke-width="1" opacity="1" d="M 120.5 80 L 119.5 82 L 120.5 80 Z "></path><path fill="rgb(182,121,88)" stroke="rgb(182,121,88)" stroke-width="1" opacity="1" d="M 136.5 81 Q 149.8 79.8 154 87.5 L 161 98.5 L 220 171.5 L 226 181.5 L 292 264.5 L 229.5 265 L 221 252.5 L 113 116.5 Q 109.5 112.5 111 103.5 L 118.5 94 L 136.5 81 Z "></path><path fill="rgb(182,121,88)" stroke="rgb(182,121,88)" stroke-width="1" opacity="1" d="M 161.5 83 L 162.5 85 L 161.5 83 Z "></path><path fill="rgb(182,121,88)" stroke="rgb(182,121,88)" stroke-width="1" opacity="1" d="M 115.5 84 L 114.5 86 L 115.5 84 Z "></path><path fill="rgb(182,121,88)" stroke="rgb(182,121,88)" stroke-width="1" opacity="1" d="M 110.5 88 L 106.5 93 L 110.5 88 Z "></path><path fill="rgb(182,121,88)" stroke="rgb(182,121,88)" stroke-width="1" opacity="1" d="M 165.5 88 L 166.5 90 L 165.5 88 Z "></path><path fill="rgb(182,121,88)" stroke="rgb(182,121,88)" stroke-width="1" opacity="1" d="M 169.5 93 L 170.5 95 L 169.5 93 Z "></path><path fill="rgb(182,121,88)" stroke="rgb(182,121,88)" stroke-width="1" opacity="1" d="M 173.5 98 L 174.5 100 L 173.5 98 Z "></path><path fill="rgb(182,121,88)" stroke="rgb(182,121,88)" stroke-width="1" opacity="1" d="M 101.5 103 L 102 107.5 L 101 107.5 L 101.5 103 Z "></path><path fill="rgb(182,121,88)" stroke="rgb(182,121,88)" stroke-width="1" opacity="1" d="M 177.5 103 L 178.5 105 L 177.5 103 Z "></path><path fill="rgb(182,121,88)" stroke="rgb(182,121,88)" stroke-width="1" opacity="1" d="M 181.5 108 L 182.5 110 L 181.5 108 Z "></path><path fill="rgb(182,121,88)" stroke="rgb(182,121,88)" stroke-width="1" opacity="1" d="M 101.5 109 L 102 112.5 L 101 112.5 L 101.5 109 Z "></path><path fill="rgb(182,121,88)" stroke="rgb(182,121,88)" stroke-width="1" opacity="1" d="M 185.5 113 L 186.5 115 L 185.5 113 Z "></path><path fill="rgb(182,121,88)" stroke="rgb(182,121,88)" stroke-width="1" opacity="1" d="M 189.5 118 L 190.5 120 L 189.5 118 Z "></path><path fill="rgb(182,121,88)" stroke="rgb(182,121,88)" stroke-width="1" opacity="1" d="M 106.5 123 L 107.5 125 L 106.5 123 Z "></path><path fill="rgb(182,121,88)" stroke="rgb(182,121,88)" stroke-width="1" opacity="1" d="M 193.5 123 L 194.5 125 L 193.5 123 Z "></path><path fill="rgb(182,121,88)" stroke="rgb(182,121,88)" stroke-width="1" opacity="1" d="M 196.5 127 L 198.5 130 L 196.5 127 Z "></path><path fill="rgb(182,121,88)" stroke="rgb(182,121,88)" stroke-width="1" opacity="1" d="M 110.5 128 L 111.5 130 L 110.5 128 Z "></path><path fill="rgb(182,121,88)" stroke="rgb(182,121,88)" stroke-width="1" opacity="1" d="M 200.5 132 L 202.5 135 L 200.5 132 Z "></path><path fill="rgb(182,121,88)" stroke="rgb(182,121,88)" stroke-width="1" opacity="1" d="M 114.5 133 L 115.5 135 L 114.5 133 Z "></path><path fill="rgb(182,121,88)" stroke="rgb(182,121,88)" stroke-width="1" opacity="1" d="M 117.5 137 L 119.5 140 L 117.5 137 Z "></path><path fill="rgb(182,121,88)" stroke="rgb(182,121,88)" stroke-width="1" opacity="1" d="M 204.5 137 L 205.5 139 L 204.5 137 Z "></path><path fill="rgb(182,121,88)" stroke="rgb(182,121,88)" stroke-width="1" opacity="1" d="M 121.5 142 L 123.5 145 L 121.5 142 Z "></path><path fill="rgb(182,121,88)" stroke="rgb(182,121,88)" stroke-width="1" opacity="1" d="M 208.5 142 L 209.5 144 L 208.5 142 Z "></path><path fill="rgb(182,121,88)" stroke="rgb(182,121,88)" stroke-width="1" opacity="1" d="M 125.5 147 L 127.5 150 L 125.5 147 Z "></path><path fill="rgb(182,121,88)" stroke="rgb(182,121,88)" stroke-width="1" opacity="1" d="M 212.5 147 L 213.5 149 L 212.5 147 Z "></path><path fill="rgb(182,121,88)" stroke="rgb(182,121,88)" stroke-width="1" opacity="1" d="M 129.5 152 L 130.5 154 L 129.5 152 Z "></path><path fill="rgb(182,121,88)" stroke="rgb(182,121,88)" stroke-width="1" opacity="1" d="M 216.5 152 L 217.5 154 L 216.5 152 Z "></path><path fill="rgb(182,121,88)" stroke="rgb(182,121,88)" stroke-width="1" opacity="1" d="M 133.5 157 L 134.5 159 L 133.5 157 Z "></path><path fill="rgb(182,121,88)" stroke="rgb(182,121,88)" stroke-width="1" opacity="1" d="M 220.5 157 L 221.5 159 L 220.5 157 Z "></path><path fill="rgb(182,121,88)" stroke="rgb(182,121,88)" stroke-width="1" opacity="1" d="M 137.5 162 L 138.5 164 L 137.5 162 Z "></path><path fill="rgb(182,121,88)" stroke="rgb(182,121,88)" stroke-width="1" opacity="1" d="M 223.5 162 L 224.5 164 L 223.5 162 Z "></path><path fill="rgb(182,121,88)" stroke="rgb(182,121,88)" stroke-width="1" opacity="1" d="M 141.5 167 L 142.5 169 L 141.5 167 Z "></path><path fill="rgb(182,121,88)" stroke="rgb(182,121,88)" stroke-width="1" opacity="1" d="M 227.5 167 L 228.5 169 L 227.5 167 Z "></path><path fill="rgb(182,121,88)" stroke="rgb(182,121,88)" stroke-width="1" opacity="1" d="M 145.5 172 L 146.5 174 L 145.5 172 Z "></path><path fill="rgb(182,121,88)" stroke="rgb(182,121,88)" stroke-width="1" opacity="1" d="M 231.5 172 L 232.5 174 L 231.5 172 Z "></path><path fill="rgb(182,121,88)" stroke="rgb(182,121,88)" stroke-width="1" opacity="1" d="M 149.5 177 L 150.5 179 L 149.5 177 Z "></path><path fill="rgb(182,121,88)" stroke="rgb(182,121,88)" stroke-width="1" opacity="1" d="M 235.5 177 L 236.5 179 L 235.5 177 Z "></path><path fill="rgb(182,121,88)" stroke="rgb(182,121,88)" stroke-width="1" opacity="1" d="M 153.5 182 L 154.5 184 L 153.5 182 Z "></path><path fill="rgb(182,121,88)" stroke="rgb(182,121,88)" stroke-width="1" opacity="1" d="M 239.5 182 L 240.5 184 L 239.5 182 Z "></path><path fill="rgb(182,121,88)" stroke="rgb(182,121,88)" stroke-width="1" opacity="1" d="M 242.5 186 L 244.5 189 L 242.5 186 Z "></path><path fill="rgb(182,121,88)" stroke="rgb(182,121,88)" stroke-width="1" opacity="1" d="M 157.5 187 L 158.5 189 L 157.5 187 Z "></path><path fill="rgb(182,121,88)" stroke="rgb(182,121,88)" stroke-width="1" opacity="1" d="M 246.5 191 L 248.5 194 L 246.5 191 Z "></path><path fill="rgb(182,121,88)" stroke="rgb(182,121,88)" stroke-width="1" opacity="1" d="M 160.5 192 L 161.5 194 L 160.5 192 Z "></path><path fill="rgb(182,121,88)" stroke="rgb(182,121,88)" stroke-width="1" opacity="1" d="M 163.5 196 L 165.5 199 L 163.5 196 Z "></path><path fill="rgb(182,121,88)" stroke="rgb(182,121,88)" stroke-width="1" opacity="1" d="M 250.5 196 L 251.5 198 L 250.5 196 Z "></path><path fill="rgb(182,121,88)" stroke="rgb(182,121,88)" stroke-width="1" opacity="1" d="M 167.5 201 L 169.5 204 L 167.5 201 Z "></path><path fill="rgb(182,121,88)" stroke="rgb(182,121,88)" stroke-width="1" opacity="1" d="M 254.5 201 L 255.5 203 L 254.5 201 Z "></path><path fill="rgb(182,121,88)" stroke="rgb(182,121,88)" stroke-width="1" opacity="1" d="M 171.5 206 L 173.5 209 L 171.5 206 Z "></path><path fill="rgb(182,121,88)" stroke="rgb(182,121,88)" stroke-width="1" opacity="1" d="M 258.5 206 L 259.5 208 L 258.5 206 Z "></path><path fill="rgb(182,121,88)" stroke="rgb(182,121,88)" stroke-width="1" opacity="1" d="M 175.5 211 L 176.5 213 L 175.5 211 Z "></path><path fill="rgb(182,121,88)" stroke="rgb(182,121,88)" stroke-width="1" opacity="1" d="M 262.5 211 L 263.5 213 L 262.5 211 Z "></path><path fill="rgb(182,121,88)" stroke="rgb(182,121,88)" stroke-width="1" opacity="1" d="M 179.5 216 L 180.5 218 L 179.5 216 Z "></path><path fill="rgb(182,121,88)" stroke="rgb(182,121,88)" stroke-width="1" opacity="1" d="M 266.5 216 L 267.5 218 L 266.5 216 Z "></path><path fill="rgb(182,121,88)" stroke="rgb(182,121,88)" stroke-width="1" opacity="1" d="M 183.5 221 L 184.5 223 L 183.5 221 Z "></path><path fill="rgb(182,121,88)" stroke="rgb(182,121,88)" stroke-width="1" opacity="1" d="M 270.5 221 L 271.5 223 L 270.5 221 Z "></path><path fill="rgb(182,121,88)" stroke="rgb(182,121,88)" stroke-width="1" opacity="1" d="M 187.5 226 L 188.5 228 L 187.5 226 Z "></path><path fill="rgb(182,121,88)" stroke="rgb(182,121,88)" stroke-width="1" opacity="1" d="M 274.5 226 L 275.5 228 L 274.5 226 Z "></path><path fill="rgb(182,121,88)" stroke="rgb(182,121,88)" stroke-width="1" opacity="1" d="M 191.5 231 L 192.5 233 L 191.5 231 Z "></path><path fill="rgb(182,121,88)" stroke="rgb(182,121,88)" stroke-width="1" opacity="1" d="M 278.5 231 L 279.5 233 L 278.5 231 Z "></path><path fill="rgb(182,121,88)" stroke="rgb(182,121,88)" stroke-width="1" opacity="1" d="M 195.5 236 L 196.5 238 L 195.5 236 Z "></path><path fill="rgb(182,121,88)" stroke="rgb(182,121,88)" stroke-width="1" opacity="1" d="M 282.5 236 L 283.5 238 L 282.5 236 Z "></path><path fill="rgb(182,121,88)" stroke="rgb(182,121,88)" stroke-width="1" opacity="1" d="M 199.5 241 L 200.5 243 L 199.5 241 Z "></path><path fill="rgb(182,121,88)" stroke="rgb(182,121,88)" stroke-width="1" opacity="1" d="M 285.5 241 L 286.5 243 L 285.5 241 Z "></path><path fill="rgb(182,121,88)" stroke="rgb(182,121,88)" stroke-width="1" opacity="1" d="M 288.5 245 L 290.5 248 L 288.5 245 Z "></path><path fill="rgb(182,121,88)" stroke="rgb(182,121,88)" stroke-width="1" opacity="1" d="M 203.5 246 L 204.5 248 L 203.5 246 Z "></path><path fill="rgb(182,121,88)" stroke="rgb(182,121,88)" stroke-width="1" opacity="1" d="M 292.5 250 L 294.5 253 L 292.5 250 Z "></path><path fill="rgb(182,121,88)" stroke="rgb(182,121,88)" stroke-width="1" opacity="1" d="M 207.5 251 L 208.5 253 L 207.5 251 Z "></path><path fill="rgb(182,121,88)" stroke="rgb(182,121,88)" stroke-width="1" opacity="1" d="M 296.5 255 L 297.5 257 L 296.5 255 Z "></path><path fill="rgb(182,121,88)" stroke="rgb(182,121,88)" stroke-width="1" opacity="1" d="M 211.5 256 L 212.5 258 L 211.5 256 Z "></path><path fill="rgb(182,121,88)" stroke="rgb(182,121,88)" stroke-width="1" opacity="1" d="M 214.5 260 L 216.5 263 L 214.5 260 Z "></path><path fill="rgb(182,121,88)" stroke="rgb(182,121,88)" stroke-width="1" opacity="1" d="M 300.5 260 L 301.5 262 L 300.5 260 Z "></path><path fill="rgb(182,121,88)" stroke="rgb(182,121,88)" stroke-width="1" opacity="1" d="M 182.5 376 L 184 376.5 L 176.5 383 L 182.5 376 Z "></path><path fill="rgb(195,195,195)" stroke="rgb(195,195,195)" stroke-width="1" opacity="1" d="M 152.5 73 L 153.5 75 L 152.5 73 Z "></path><path fill="rgb(195,195,195)" stroke="rgb(195,195,195)" stroke-width="1" opacity="1" d="M 155.5 75 L 156.5 77 L 155.5 75 Z "></path><path fill="rgb(195,195,195)" stroke="rgb(195,195,195)" stroke-width="1" opacity="1" d="M 122.5 78 L 121.5 80 L 122.5 78 Z "></path><path fill="rgb(195,195,195)" stroke="rgb(195,195,195)" stroke-width="1" opacity="1" d="M 159.5 80 L 160.5 82 L 159.5 80 Z "></path><path fill="rgb(195,195,195)" stroke="rgb(195,195,195)" stroke-width="1" opacity="1" d="M 117.5 82 L 116.5 84 L 117.5 82 Z "></path><path fill="rgb(195,195,195)" stroke="rgb(195,195,195)" stroke-width="1" opacity="1" d="M 163.5 85 L 164.5 87 L 163.5 85 Z "></path><path fill="rgb(195,195,195)" stroke="rgb(195,195,195)" stroke-width="1" opacity="1" d="M 112.5 86 L 111.5 88 L 112.5 86 Z "></path><path fill="rgb(195,195,195)" stroke="rgb(195,195,195)" stroke-width="1" opacity="1" d="M 167.5 90 L 168.5 92 L 167.5 90 Z "></path><path fill="rgb(195,195,195)" stroke="rgb(195,195,195)" stroke-width="1" opacity="1" d="M 105.5 93 L 104.5 95 L 105.5 93 Z "></path><path fill="rgb(195,195,195)" stroke="rgb(195,195,195)" stroke-width="1" opacity="1" d="M 171.5 95 L 172.5 97 L 171.5 95 Z "></path><path fill="rgb(195,195,195)" stroke="rgb(195,195,195)" stroke-width="1" opacity="1" d="M 175.5 100 L 176.5 102 L 175.5 100 Z "></path><path fill="rgb(195,195,195)" stroke="rgb(195,195,195)" stroke-width="1" opacity="1" d="M 108.5 126 L 109.5 128 L 108.5 126 Z "></path><path fill="rgb(195,195,195)" stroke="rgb(195,195,195)" stroke-width="1" opacity="1" d="M 112.5 131 L 113.5 133 L 112.5 131 Z "></path><path fill="rgb(195,195,195)" stroke="rgb(195,195,195)" stroke-width="1" opacity="1" d="M 206.5 139 L 207.5 141 L 206.5 139 Z "></path><path fill="rgb(195,195,195)" stroke="rgb(195,195,195)" stroke-width="1" opacity="1" d="M 210.5 144 L 211.5 146 L 210.5 144 Z "></path><path fill="rgb(195,195,195)" stroke="rgb(195,195,195)" stroke-width="1" opacity="1" d="M 214.5 149 L 215.5 151 L 214.5 149 Z "></path><path fill="rgb(195,195,195)" stroke="rgb(195,195,195)" stroke-width="1" opacity="1" d="M 218.5 154 L 219.5 156 L 218.5 154 Z "></path><path fill="rgb(195,195,195)" stroke="rgb(195,195,195)" stroke-width="1" opacity="1" d="M 147.5 175 L 148.5 177 L 147.5 175 Z "></path><path fill="rgb(195,195,195)" stroke="rgb(195,195,195)" stroke-width="1" opacity="1" d="M 151.5 180 L 152.5 182 L 151.5 180 Z "></path><path fill="rgb(195,195,195)" stroke="rgb(195,195,195)" stroke-width="1" opacity="1" d="M 155.5 185 L 156.5 187 L 155.5 185 Z "></path><path fill="rgb(195,195,195)" stroke="rgb(195,195,195)" stroke-width="1" opacity="1" d="M 252.5 198 L 253.5 200 L 252.5 198 Z "></path><path fill="rgb(195,195,195)" stroke="rgb(195,195,195)" stroke-width="1" opacity="1" d="M 256.5 203 L 257.5 205 L 256.5 203 Z "></path><path fill="rgb(195,195,195)" stroke="rgb(195,195,195)" stroke-width="1" opacity="1" d="M 260.5 208 L 261.5 210 L 260.5 208 Z "></path><path fill="rgb(195,195,195)" stroke="rgb(195,195,195)" stroke-width="1" opacity="1" d="M 264.5 213 L 265.5 215 L 264.5 213 Z "></path><path fill="rgb(195,195,195)" stroke="rgb(195,195,195)" stroke-width="1" opacity="1" d="M 268.5 218 L 269.5 220 L 268.5 218 Z "></path><path fill="rgb(195,195,195)" stroke="rgb(195,195,195)" stroke-width="1" opacity="1" d="M 193.5 234 L 194.5 236 L 193.5 234 Z "></path><path fill="rgb(195,195,195)" stroke="rgb(195,195,195)" stroke-width="1" opacity="1" d="M 197.5 239 L 198.5 241 L 197.5 239 Z "></path><path fill="rgb(195,195,195)" stroke="rgb(195,195,195)" stroke-width="1" opacity="1" d="M 201.5 244 L 202.5 246 L 201.5 244 Z "></path><path fill="rgb(195,195,195)" stroke="rgb(195,195,195)" stroke-width="1" opacity="1" d="M 205.5 249 L 206.5 251 L 205.5 249 Z "></path><path fill="rgb(195,195,195)" stroke="rgb(195,195,195)" stroke-width="1" opacity="1" d="M 209.5 254 L 210.5 256 L 209.5 254 Z "></path><path fill="rgb(195,195,195)" stroke="rgb(195,195,195)" stroke-width="1" opacity="1" d="M 298.5 257 L 299.5 259 L 298.5 257 Z "></path><path fill="rgb(195,195,195)" stroke="rgb(195,195,195)" stroke-width="1" opacity="1" d="M 302.5 262 L 303.5 264 L 302.5 262 Z "></path><path fill="rgb(195,195,195)" stroke="rgb(195,195,195)" stroke-width="1" opacity="1" d="M 15 273 L 58 273 L 58 295.5 L 59 296.5 L 59 305.5 L 60 306.5 L 60 313.5 L 63 329.5 L 68 348.5 L 74 364.5 Q 84.7 390.3 103.5 408 Q 112.3 415.7 125.5 419 L 143.5 419 L 159 413 Q 157.9 410.3 160.5 411 L 177 395.5 Q 176.3 392.9 179 394 L 188 426.5 L 206 466.5 L 222 489.5 L 222 491.5 L 234.5 505 Q 245.8 515.7 261.5 522 L 272.5 525 L 291.5 525 Q 306.1 522.1 316.5 515 L 337 497.5 Q 399.8 416 400 273 L 726.5 273 L 727 273.5 L 727 292.5 L 726 293.5 L 726 305.5 L 725 306.5 L 723 327.5 L 715 363.5 Q 706.9 392.9 695 418.5 L 676 454.5 L 656 485.5 Q 634.3 514.3 607.5 538 L 601 543.5 Q 601.8 545.8 599.5 545 L 571.5 567 L 537.5 588 L 510.5 601 L 472.5 615 L 440.5 623 L 408.5 627 L 407.5 628 L 396.5 628 L 395.5 629 L 346.5 629 L 345.5 628 L 333.5 628 L 332.5 627 L 317.5 626 L 291.5 621 L 269.5 615 L 230.5 601 Q 193.7 584.3 162.5 562 Q 130.6 537.9 104 508.5 Q 82.9 483.1 65 454.5 Q 48.3 426.7 36 394.5 L 23 347.5 L 20 327.5 L 18 321.5 L 17 305.5 L 16 304.5 L 16 293.5 L 15 292.5 L 15 273 Z "></path><path fill="rgb(195,195,195)" stroke="rgb(195,195,195)" stroke-width="1" opacity="1" d="M 210.5 312 L 211 313.5 L 209.5 316 L 209 314.5 L 210.5 312 Z "></path><path fill="rgb(195,195,195)" stroke="rgb(195,195,195)" stroke-width="1" opacity="1" d="M 176.5 319 L 177.5 321 L 176.5 319 Z "></path><path fill="rgb(195,195,195)" stroke="rgb(195,195,195)" stroke-width="1" opacity="1" d="M 146.5 320 L 150 321.5 L 148.5 322 L 146.5 320 Z "></path><path fill="rgb(195,195,195)" stroke="rgb(195,195,195)" stroke-width="1" opacity="1" d="M 172.5 331 L 175 332.5 L 174.5 334 L 172.5 331 Z "></path><path fill="rgb(195,195,195)" stroke="rgb(195,195,195)" stroke-width="1" opacity="1" d="M 166.5 340 L 167 342 L 165 341.5 L 166.5 340 Z "></path><path fill="rgb(195,195,195)" stroke="rgb(195,195,195)" stroke-width="1" opacity="1" d="M 193.5 366 L 196 367.5 L 195.5 369 L 193.5 366 Z "></path><path fill="rgb(195,195,195)" stroke="rgb(195,195,195)" stroke-width="1" opacity="1" d="M 189.5 368 Q 191.8 367.3 191 369.5 L 189.5 368 Z "></path><path fill="rgb(195,195,195)" stroke="rgb(195,195,195)" stroke-width="1" opacity="1" d="M 196.5 370 L 199 371.5 L 198.5 373 L 196.5 370 Z "></path><path fill="rgb(195,195,195)" stroke="rgb(195,195,195)" stroke-width="1" opacity="1" d="M 183.5 374 L 184 376 L 176.5 382 L 183.5 374 Z "></path><path fill="rgb(223,223,223)" stroke="rgb(223,223,223)" stroke-width="1" opacity="1" d="M 107.5 90 L 106.5 92 L 107.5 90 Z "></path><path fill="rgb(239,228,176)" stroke="rgb(239,228,176)" stroke-width="1" opacity="1" d="M 66 273 L 391.5 273 L 392 273.5 L 392 300.5 L 391 301.5 L 391 315.5 L 390 316.5 L 389 334.5 L 388 335.5 L 388 342.5 L 387 343.5 L 384 366.5 L 379 385.5 L 379 389.5 L 369 422.5 Q 360.6 446.6 348 466.5 L 348 469.5 Q 335.8 489.3 318.5 504 L 298.5 515 L 281.5 518 L 280.5 517 L 268.5 516 L 254.5 510 Q 239.6 500.9 229 487.5 Q 214 467 203 442.5 L 191 410.5 L 184 384.5 L 184 382.5 L 185 378.5 L 183.5 374 L 176 381.5 L 176 383.5 L 170 391.5 L 157.5 404 L 148.5 409 L 134.5 412 L 123.5 410 L 114.5 406 L 99 392.5 L 85 369.5 L 74 340.5 L 67 305.5 L 66 273 Z M 173 331 L 175 334 L 175 333 L 173 331 Z M 167 340 L 165 342 L 167 342 L 167 340 Z M 194 366 L 196 369 L 196 368 L 194 366 Z M 190 368 L 191 370 Q 192 367 190 368 Z M 197 370 L 199 373 L 199 372 L 197 370 Z "></path></svg>